Patient4_TMGait_0pt5_02_left_35_EMG.mot
version=1
nRows=23
nColumns=33
inDegrees=no
endheader
time	1LAddLong	2LGlutMax	3LGlutMed	4LIliopsoas	5LSemiMemb	6LBicFemLong	7LRecFem	8LVastMed	9LVastLat	10LGasMed	11LTibAnt	12lTibPost	13LPeroneusLong	14LSol	15LExtDigLong	16LFlexDigLong	17RAddLong	18RGlutMax	19RGlutMed	20RIliopsoas	21RSemiMemb	22RBicFemLong	23RRecFem	24RVastMed	25RVastLat	26RGasMed	27RTibAnt	28RTibPost	29RPeroneusLong	30RSol	31RExtDigLong	32RFlexDigLong
46.408	0.006561	0.1712	0.023193	-0.010681	0.013885	-0.029449	0.061188	0.000305	0.072632	-0.071411	0.003204	-0.004578	0.10162	0.090027	0.04425	0.081024	0.019073	0.063019	0.073395	-0.010681	0.059509	-0.053711	0.0383	0.040436	0.02243	-0.043793	-0.057831	-0.004272	-0.10544	-0.31448	0.001831	-0.016937
46.409	-0.002899	0.12405	0.13886	0.013428	0.025177	-0.026093	0.06012	-0.006561	0.05127	-0.082397	-0.003967	-0.000458	0.11444	0.1535	0.042267	0.12589	0.033264	0.005493	0.40527	0.018616	0.072937	-0.087585	0.15915	0.045013	0.051575	-0.026245	-0.050812	-0.005188	-0.06546	-0.11658	-0.001831	-0.010376
46.41	-0.008545	0.11856	0.10696	0.001221	0.011292	-0.011749	0.06485	-0.000305	0.061646	-0.066681	-0.007935	-0.015411	0.10956	0.084839	0.033722	0.070648	0.025177	-0.071411	0.19836	-0.000458	0.084991	-0.15533	0.24887	0.054016	0.005646	0.001526	-0.036926	-0.005493	-0.000458	0.48477	-0.001526	-0.016174
46.411	-0.002441	0.10681	0.073853	0.001068	-0.014954	0.002594	0.062408	-0.00061	0.065613	-0.046539	-0.003357	-0.01236	0.070953	0.043945	0.023193	0.037231	0.009613	-0.092926	0.39322	-0.024109	-0.057068	-0.11276	0.10956	-0.050201	-0.00824	0.016632	0.005188	-0.004425	0.030823	1.0562	0.000305	-0.011902
46.412	-0.000153	0.069885	0.04303	0.01297	-0.088501	-0.019226	0.077515	-0.007782	0.066833	-0.039978	-0.010071	-0.007172	0.081329	0.002594	0.015411	0.014496	0.012512	-0.11658	0.28748	-0.044098	-0.004883	-0.09079	-0.071716	-0.054932	-0.002899	-0.032196	0.019379	-0.001068	0.026398	1.2898	0.00351	-0.005341
46.413	0.001068	0.069733	0.016785	0.000916	-0.08606	-0.039978	0.068054	-0.00885	0.059509	-0.043182	-0.004272	-0.007324	0.0737	-0.041046	0.053101	0.007782	0.01358	-0.14725	0.60852	-0.10895	-0.14633	-0.026398	-0.092926	-0.057678	0.006866	-0.056152	-0.086823	-0.002136	0.092621	1.1041	-0.001221	-0.007324
46.414	0.002899	0.047455	-0.017395	0.006409	0.053101	-0.034332	0.067749	-0.002441	0.05661	-0.059662	0.006714	0.005035	0.040283	-0.10407	0.052185	0.004883	-0.003052	-0.20752	0.30472	-0.10956	-0.17502	0.11246	-0.073242	-0.069275	0.001984	-0.041199	-0.075531	-0.004578	0.066223	0.81161	-0.001373	-0.000916
46.415	0.006561	0.073242	-0.022278	0.018311	0.085144	-0.00885	0.06012	-0.004425	0.075989	-0.055847	0.023651	0.003052	0.029755	-0.12589	-0.008087	0.002136	-0.015106	-0.12955	0.023499	-0.018005	-0.072021	0.21316	-0.092163	-0.079803	-0.006866	-0.065918	-0.058441	-0.009003	-0.027313	0.56763	0.001831	-0.014648
46.416	0.006256	0.027618	-0.033417	0.014648	0.06546	0.011749	0.065155	-0.00351	0.062256	-0.032654	0.034027	0.001373	0.024567	-0.068359	-0.022736	-0.00946	-0.025787	-0.069733	-0.17014	0.020447	0.092926	0.15396	-0.085907	-0.082092	-0.013885	-0.059967	0.14786	-0.013275	-0.22568	0.19318	0.00061	-0.00824
46.417	0.001221	0.049133	-0.070648	-0.002441	0.037384	0.040588	0.054779	-0.009308	0.063629	-0.007172	0.041962	-0.000916	0.020599	-0.061188	-0.027313	0.003204	-0.031128	-0.024719	-0.018768	-0.011292	0.062256	0.069733	-0.16373	-0.082855	-0.003662	0.073853	0.15091	-0.014343	-0.19974	-0.23575	0.000763	-0.001831
46.418	0.006104	0.029449	-0.078583	-0.010376	-0.002594	0.037384	0.061646	-0.052338	0.056458	0.001068	0.035248	0.006561	0.019836	-0.034637	-0.017853	-0.006256	-0.009003	-0.060577	0.01709	0.10651	0.055389	0.021362	-0.16037	0.039978	0.037994	0.048218	0.23499	-0.021515	-0.08255	-0.65277	0.005188	-0.004883
46.419	-0.010376	-0.016174	-0.049133	0.003204	-0.025024	0.031586	0.065002	-0.000458	0.051727	0.015411	0.007477	0.000916	0.0354	-0.026398	0.007172	0	-0.007782	-0.12146	0.14145	0.18494	0.061188	0.044556	-0.16007	0.13046	0.13092	0.023193	0.23392	0.01297	-0.049286	-0.8696	0.006256	-0.015106
46.42	0.001831	-0.037994	-0.013275	0.013733	-0.0383	0.008087	0.053558	0.00473	0.052185	-0.008698	-0.00824	0.000153	0.050201	-0.053253	0.015717	-0.000153	0.00412	-0.14496	0.38971	0.1416	0.0177	0.015869	-0.034485	0.15213	0.045471	0.067902	-0.18143	0.006561	0.024261	-0.87265	0.000763	-0.014496
46.421	0.005798	-0.05722	-0.014191	0.030518	0.007477	-0.034332	0.03479	-0.010681	0.061646	-0.002289	0.050201	-0.004578	0.054779	-0.1355	-0.007019	-0.00061	0.005646	-0.14313	0.38559	0.044098	-0.010834	-0.009613	-0.009918	0.090027	0.025024	0.057373	-0.46463	-0.001984	0.10727	-0.70297	0.002594	-0.012817
46.422	0.00351	-0.076141	-0.027771	0.030365	0.067596	-0.019531	0.034943	-0.002289	0.064392	-0.016327	0.012665	-0.000458	0.050201	-0.19775	0.006409	-0.002289	0.016937	-0.19486	0.18295	0.027924	0.037384	-0.055542	0.000458	0.047302	0.024109	0.019531	-0.43091	-0.002747	-0.023346	-0.53406	0.004272	-0.008698
46.423	0.005035	-0.10834	-0.093231	0.015411	0.038147	-0.00473	0.03952	0.001984	0.044403	-0.026855	0.001678	0.001831	0.05249	-0.22461	-0.009003	0.004578	0.024872	-0.17425	0.18219	0.051575	-0.071411	-0.045319	-0.023346	0.016632	0.02243	0.006866	0.33341	0.000153	-0.016174	-0.070801	0.001984	-0.006561
46.424	0.009155	-0.09491	-0.12131	0.00946	0.016174	0.001831	0.030975	-0.007324	0.056152	-0.030212	0.021667	0.001068	0.046539	-0.19531	-0.011444	0.002136	0.004425	-0.16708	0.074768	0.06424	0.014954	-0.095673	-0.04425	0.023499	0.023041	0.028381	0.84686	0.000458	0.14175	0.036774	0.000458	-0.016632
46.425	0.008392	-0.1297	-0.099487	0.000153	0.027924	0.009918	0.032349	-0.003052	0.056152	-0.024872	0.018616	-0.002899	0.0354	-0.10361	-0.007172	0.002594	-0.022125	-0.1619	0.036011	0.011597	0.13626	-0.051575	0.023804	0.092316	-0.006561	0.027466	0.51453	0.004272	0.24399	0.42786	0.006104	-0.009766
46.426	0.007629	-0.11993	-0.002899	-0.002289	0.027466	0.000458	0.035858	-0.003357	0.062714	-0.028381	-0.004883	0.002899	0.006714	-0.092316	-0.009003	0.035706	-0.030823	-0.13626	0.14526	-0.023804	0.042572	-0.003357	0.15503	0.034943	-0.01297	-0.000763	-0.14038	-0.010986	0.20844	0.54504	0.001221	-0.009155
46.427	0.006714	-0.1178	0.040588	0.010223	0.014038	0.010071	0.028839	-0.002136	0.070801	-0.035706	-0.006256	0.005341	-0.010376	-0.08316	0.005188	0.033112	-0.027161	-0.10254	0.061951	-0.087738	-0.14389	0.043335	0.065918	0.024414	-0.017548	-0.052185	-0.53146	-0.012665	0.04364	0.25787	0.00061	-0.011444
46.428	0.00061	-0.10361	-0.013885	0.007935	0.016785	0.029144	0.023041	0.000763	0.064697	-0.052795	-0.004425	0.004425	0.005798	-0.10483	-0.006714	-0.055084	0.001373	-0.13626	0.1149	-0.13977	-0.054169	0.079193	-0.031738	0.027771	0.005646	-0.078583	-0.15472	-0.019989	-0.069885	0.12863	0.000458	-0.010376
46.429	0.001068	-0.10468	-0.086975	0.011292	-0.008392	0.030975	0.022888	-0.00351	0.06134	-0.077972	0.021667	0.001678	0.014191	-0.072021	0.000458	-0.051575	0.014191	-0.16342	0.3891	-0.10422	0.005798	0.09613	0.003357	0.005341	-0.028076	-0.008545	0.099792	-0.015106	-0.081329	0.45853	0.001373	-0.006561
46.43	-0.00412	-0.11704	-0.085144	0.012207	-0.029297	0.01236	0.015869	-0.007019	0.056152	-0.077209	0.042877	0.001984	0.036163	0.031433	0.004272	0.033112	-0.00885	-0.14725	0.14389	0.015869	0.004425	0.094757	0.017395	0.007782	-0.049438	0.011902	0.077362	-0.010071	-0.007477	0.18143	0.001984	-0.011749
